<?xml version="1.0" encoding="utf-8"?>
<svg xmlns="http://www.w3.org/2000/svg" viewBox="0 0 500 500" xmlns:bx="https://boxy-svg.com" width="500px" height="500px"><defs><bx:export><bx:file format="svg"/><bx:file format="png" background="#fff"/><bx:file format="svg" href="#object-0" path="Untitled 2.svg"/><bx:file format="svg" href="#object-1" path="Untitled 3.svg"/></bx:export></defs><g transform="matrix(3.59549, 0, 0, 3.59549, 10.1107, 30.0002)"/><rect x="-49.742" y="-17.941" width="605.207" height="517.939" style="fill: rgb(255, 255, 255);" id="object-1"/><g transform="matrix(0.168675, 0, 0, -0.168675, -100.001, 500)" fill="#000000" stroke="none" id="object-0"><path d="M0 2075 l0 -2075 451 0 450 0 -4 953 c-3 703 -7 964 -16 997 -7 25 -30 72 -51 106 -83 127 -88 263 -15 411 45 92 114 161 202 205 132 65 298 47 433 -46 129 -90 142 -96 236 -107 115 -14 804 -6 855 10 20 6 68 34 105 62 38 27 98 64 134 82 61 30 71 32 175 32 103 0 114 -2 177 -32 215 -102 318 -365 220 -563 -18 -36 -41 -78 -51 -95 -11 -16 -24 -59 -30 -95 -16 -106 -24 -810 -16 -1385 l8 -535 443 0 444 0 0 2075 0 2075 -2075 0 -2075 0 0 -2075z" style="fill: rgb(42, 51, 67);"/><path d="M1567 1769 c-40 -11 -91 -52 -117 -94 l-22 -35 24 -46 c25 -51 66 -91 104 -100 66 -17 149 36 174 110 9 29 8 40 -8 73 -38 72 -97 108 -155 92z" style="fill: rgb(42, 51, 67);"/><path d="M2484 1760 c-59 -29 -88 -85 -82 -158 4 -47 10 -60 37 -84 25 -22 41 -28 79 -28 133 0 210 134 131 225 -34 39 -77 65 -106 65 -10 0 -36 -9 -59 -20z" style="fill: rgb(42, 51, 67);"/><path d="M1875 1100 c-86 -10 -120 -23 -135 -50 -31 -58 6 -255 73 -390 48 -96 67 -105 242 -105 162 0 194 10 237 76 25 39 128 329 128 362 0 27 -47 73 -87 85 -89 26 -316 37 -458 22z" style="fill: rgb(42, 51, 67);"/></g></svg>